<svg xmlns="http://www.w3.org/2000/svg" viewBox="0 0 64 64">
  <rect width="64" height="64" rx="12" fill="#050814"/>
  <!-- S -->
  <path d="M12 20 Q12 14 20 14 L28 14 Q28 14 28 18 L20 18 Q16 18 16 22 Q16 26 20 26 L24 26 Q32 26 32 34 Q32 42 24 42 L16 42 Q16 42 16 38 L24 38 Q28 38 28 34 Q28 30 24 30 L20 30 Q12 30 12 22 Z" fill="#ff2b47"/>
  <!-- T -->
  <path d="M34 14 L54 14 L54 18 L46 18 L46 42 L42 42 L42 18 L34 18 Z" fill="#ff2b47"/>
  <!-- Glow effect -->
  <rect width="64" height="64" rx="12" fill="none" stroke="#ff2b47" stroke-width="1.5" opacity="0.4"/>
</svg>
